<?xml version="1.0" encoding="utf-8"?>
<!-- Generator: Adobe Illustrator 28.0.0, SVG Export Plug-In . SVG Version: 6.00 Build 0)  -->
<svg version="1.1" id="Layer_1" xmlns="http://www.w3.org/2000/svg" xmlns:xlink="http://www.w3.org/1999/xlink" x="0px" y="0px"
	 viewBox="0 0 1920 1080" style="enable-background:new 0 0 1920 1080;" xml:space="preserve">
<style type="text/css">
	.st0{fill:#EB4A98;}
	.st1{fill:url(#SVGID_1_);}
	.st2{stroke:#FFFFFF;stroke-miterlimit:10;}
</style>
<g>
	<g>
		<path class="st0" d="M616.3,465.9L616.3,465.9c-1.4-3.1-4.3-4.2-7.4-2.8c-3.2,1.4-4.4,5.2-5.7,10.4c-4,17.7-12.6,40.6-30.9,48.8
			c-5.1,2.3-7.4-2.6-7.5-2.8c-0.8-1.8-1-2.2,1.7-4.2c12.9-9.7,28.4-33.3,22.4-46.6c-1.2-2.6-3.7-4.6-7-5.4c-3-0.8-6.2-0.6-8.8,0.6
			c-4.7,2.1-20.2,11-23.6,37.8c-7.3,28.8-13.4,35.4-16.4,36.7c-1.4,0.6-2,0.4-2.5,0.1c-0.8-0.5-1.6-1.7-2.4-3.5c-1-2.2-2-6.6-3-10.9
			c-1.2-5.1-2.4-10.4-3.9-13.7c-1.5-3.4-3.6-5.7-6.2-6.8c-2.9-1.2-6.3-1-10.1,0.8c-8.9,4-18.2,16.5-24.1,31.4
			c-0.2-5,0-10.6,1.3-13.8c1.5-3.7,3.7-7.7,6.2-12.3c5.2-9.3,12.2-22,18.2-41.9c8.5-28.1,4.4-44.3,1.2-51.5c-1.3-2.9-3.6-5-6.7-6.2
			c-3.3-1.3-7.2-1.2-10.2,0.2c-5.4,2.4-10.4,9-14.7,19c-6.1-1.9-14.6-0.5-25,4.2c-5.5,2.5-10.1,5.4-13.7,7.9c-2.2-1-4.6-1.1-6.6-0.2
			c-3.8,1.7-6.3,7.7-7.5,11.5c-2.1,1.9-4.3,3.8-6.4,5.7c-11,9.8-21.3,19.1-34.5,25c-4,1.8-7.9,1.6-12.8-0.7
			c-2.3-1.4-5.5-1.2-7.5-0.3c-4.2,1.9-6.2,6.7-4.4,10.6c5,11.2,23.9,5.7,30.1,2.9c11.9-5.3,21.9-13,30.5-20.4
			c-5.4,36.9-7.5,98.7,7.8,132.7c2,4.5,5.3,6.3,8.4,6.3c1.2,0,2.4-0.3,3.5-0.8c2.2-1,3.9-2.8,4.6-5.2c0.7-2.1,0.6-4.4-0.3-6.2
			c-0.7-1.6-1.5-2.6-2.4-3.6c-0.8-0.9-1.5-1.8-2.2-3.3c-11.7-26.1-13.5-105.6,0.6-137.6c5.3-4.8,12.2-10.6,19.5-13.8
			c4.6-2.1,10.3-2,12,1.7c0.2,0.4,0.4,0.8,0.6,1.1c-1.6,6.4-2.9,13.3-3.9,20.7c-6,44.1-0.6,96.4,4.6,107.9c1.1,2.4,2.6,4.2,4.4,5.3
			c2,1.2,4.1,1.4,6,0.5c2.9-1.3,6-4.4,5-11.7c-1.9-13.6,10.4-45.3,19.1-49.2c1.3-0.6,1.7-0.6,2.7,1.6c0.3,0.7,0.8,3.3,1.3,5.8
			c1,5.1,2.2,11.3,4,15.3c4.8,10.6,12.5,13.9,22.4,9.5c5.7-2.6,11.2-10,16.6-22.7c2,2.5,4.7,4.6,7.9,6c4.6,1.9,9.5,2,13.4,0.3
			c25.1-11.3,35.6-38.2,41.9-60.5C617,471.1,617.5,468.7,616.3,465.9z M478.9,500.1c-0.1-6.4,0-17.9,1.9-33.1v0
			c2.9-25,9.4-40.3,14.2-42.5c0.5-0.2,0.9-0.3,1.2-0.3c0.6,0,0.8,0.4,1.1,1c1.4,3.1,3.8,13.4-3.7,41.7
			C489.3,482.4,482.8,494,478.9,500.1z M577,477.5c0,0.1,0.1,0.2,0.2,0.4c1.3,2.8-6.4,17.7-13.5,24.6c0.9-3.4,2.2-7.6,3.8-11.6
			c1.4-3.6,2.9-6.5,4.4-8.8c1.5-2.2,2.9-3.7,4.2-4.3C576.6,477.5,576.9,477.5,577,477.5z"/>
	</g>
</g>
<linearGradient id="SVGID_1_" gradientUnits="userSpaceOnUse" x1="436.76" y1="539.545" x2="1436.13" y2="539.545">
	<stop  offset="0" style="stop-color:#3C60AC"/>
	<stop  offset="1.942092e-02" style="stop-color:#3767B2"/>
	<stop  offset="0.1092" style="stop-color:#2381C8"/>
	<stop  offset="0.2085" style="stop-color:#1395D9"/>
	<stop  offset="0.3209" style="stop-color:#08A3E6"/>
	<stop  offset="0.4573" style="stop-color:#02ABED"/>
	<stop  offset="0.685" style="stop-color:#00AEEF"/>
	<stop  offset="0.7316" style="stop-color:#13B4F0"/>
	<stop  offset="0.8263" style="stop-color:#45C3F3"/>
	<stop  offset="0.9595" style="stop-color:#94DAF8"/>
	<stop  offset="1" style="stop-color:#AEE2FA"/>
</linearGradient>
<path class="st1" d="M1417.6,743c-16.9,5.5-34.8,8.6-53.8,8.6c-2,0-4-0.1-6-0.4c3.6,41,7.2,82.1,10.8,123.1L899.6,718.6
	c-12,16.3-23.7,32.1-35.2,47l571.7,189.8L1417.6,743z M1363.6,123.6l-199,107.3c-5.6,19.6-12.4,41.1-20.6,64.1l166.1-89.6
	c2.5,28.3,4.9,56.5,7.4,84.8c2.2-0.1,4.3-0.2,6.6-0.2c12,0,23.2,5.1,31.3,14.4c7.4,8.3,11.6,19.3,11.6,30.1
	c0,29.5-12.8,66.5-36.4,106c4.6,52.9,9.2,105.7,13.8,158.6c9.9-13,20.9-24.1,32.8-33.1c7.6-5.7,15.5-10.6,23.6-14.5L1363.6,123.6z
	 M795.6,430c0.1,9.8,0.1,19.7,0,29.8c0,7.8-0.1,15.6-0.2,23.4c67.1-36.2,134.3-72.4,201.4-108.7c11.4-24.1,21.3-47.2,29.8-69.1
	L795.6,430z M683.9,490.2L436.8,623.6l235.7,78.3c1.9-18.4,3.5-37.4,4.9-57.1L565,607.5c39.2-21.2,78.5-42.3,117.7-63.5
	C683.3,526.3,683.7,508.4,683.9,490.2z"/>
<g>
	<path class="st0" d="M1144.6,439.2c0,9.2-4.6,17.9-12.9,24.5c-6.4,5-14.8,8.5-20.8,8.5c-12.6,0-17.2-18.4-17.2-30.7
		c0-6.4,3.2-13.4,8.4-18.7c5.8-5.8,13.4-9,21.5-9C1133.7,413.8,1144.6,421.8,1144.6,439.2z"/>
</g>
<g>
	<g>
		<path class="st0" d="M1291.9,546.2c-46,0-93.2,46.4-124.6,85.4c-0.7,0.8-1.4,1.7-2.1,2.5c-1.2,1.4-2.5,3-3.8,4.2
			c1.7-12.6,8.9-39.4,14.1-47c119.2-87.9,181.6-195.7,181.6-256.8c0-16.6-13.2-34.4-32.9-34.4c-23,0-43,9-63,28.4
			c-19.3,18.8-39.3,48.1-62.9,92.2c-33.3,61.8-58.2,125.7-71.8,185c-1.5,1.8-3.1,3.8-4.8,5.9l-0.1,0.1c-14.1,18.8-34.3,41-52.7,58.1
			c-29.8,27.6-42.2,30.6-46.2,30.6c-8.7,0-9-9.4-9-10.5c0-14.9,21.6-66.1,38.3-95c1.9-3.2,3.9-6,5.8-8.8c4.9-7.1,9.1-13.2,9.1-20.5
			c0-5.2-2.9-10-8.1-13.5c-4.1-2.8-9.2-4.4-13.6-4.4c-12.1,0-19.5,12.8-28.1,27.6l-0.6,1c-4.6,8.6-44.7,84.7-44.7,119.6
			c0,27.8,20.4,42.7,35.2,42.7c14.6,0,33.9-8.6,57.5-25.6c19.2-13.9,37.5-30.6,51.5-44.4c-1.3,13.4-2,26.6-2,39.3
			c0,15,2.1,32.2,18.7,32.2c9.9,0,26.9-14.4,26.9-29.2c0-9.4,15-34.1,31-50.8c16-17.6,64.8-71.1,83.5-71.1c6.2,0,9,3.8,9,7.5
			c0,16-9.5,39.8-24.2,60.6c-15,21.2-31.8,34.4-43.8,34.4c-1.9,0-3-0.5-4.8-1.3c-3-1.3-7.1-3.2-15.4-3.2c-6,0-11.5,2.1-15.6,5.9
			c-3.9,3.6-6.1,8.6-6.1,13.6c0,8.5,3.7,28.4,37.4,28.4c26.5,0,55.5-18.5,79.6-50.8c22.8-30.7,36.4-67.6,36.4-98.8
			C1326.4,562.2,1312.2,546.2,1291.9,546.2z M1312.2,338.2c5,0,6.7,1.8,6.7,6.7c0,13.5-13,47.7-37.9,87.2
			c-26,41.2-58.2,77.5-91.7,103.5c7-20.1,21.7-58.8,45.4-105.6c18.9-37,36.8-59.2,48.4-71.3C1298.7,342.5,1308.9,338.2,1312.2,338.2
			z"/>
	</g>
</g>
<g>
	<path class="st0" d="M1544.8,591.1c-9.7,0-17.2,8.5-26.7,20.4l-0.1,0.1c-32.2,42.9-82.9,94-142.3,94c-17.7,0-17.9-17.2-17.9-18
		c0-6,0-8.2,10.7-10.6c23.9-5.4,52.6-19.4,74.9-36.5c25.9-19.8,40.1-41.1,40.1-60c0-7.9-4.2-15.9-11.7-21.9
		c-6.8-5.5-15.6-8.8-23.5-8.8c-21.5,0-44.5,8.5-65,24c-23.3,17.6-43.1,44.1-57.4,76.7c-7.7,4.2-13.8,13.4-13.8,21.2
		c0,4.2,0.7,7.1,1.2,9.6c0.5,2.3,1,4.4,1,7.6c0,26.9,24,52.4,49.4,52.4c80.1,0,140.3-59.2,183.8-110.8l0.1-0.1
		c8-10.2,12.2-15.9,12.2-24.5C1559.8,596.8,1554.1,591.1,1544.8,591.1z M1439.3,588.1c4.5,0,4.5,0.5,4.5,3c0,2.5-5.7,13.6-30.9,31.1
		c-14.4,10-28.9,17.5-39.9,20.9C1389.2,621.8,1422,588.1,1439.3,588.1z"/>
</g>
<g>
	<path class="st0" d="M698.6,906.4c-16.2,0-30.7-11-35.1-26.9c-2.9-10.4-1.6-23.6,5.3-34c20.2-82.8,33.3-217.5,35.3-364.1
		c0.9-66.7-0.8-130.9-4.8-180.8c-0.3-4.2-0.7-8.2-1-12c-14.3,25.9-33,51.6-58.2,69c-46.3,32-88.5,27.7-115.7,18.5
		c-28.3-9.6-46.1-26.7-48-28.6c-12.1-14.3-11.3-35.8,1.9-49c13.1-13.1,34.4-14.1,48.7-2.2c0,0-0.1-0.1-0.1-0.1
		c-0.1-0.1-0.1-0.1-0.3-0.2c0.1,0.1,9.2,8.5,22.9,12.5c16.4,4.9,32.7,1.5,49.7-10.2c27.5-19,46.7-64.4,59.3-94.4
		c11.7-27.8,18.8-44.5,37.9-51.4c10.1-3.6,21.3-2.8,30.8,2.2c23.2,12.3,34.1,42.4,41.6,115.1c5.2,49.9,7.9,117.3,7.5,189.8
		c-0.5,110.6-7.3,215.7-18.9,301c9-11.2,19-23.8,30-38.2c52.8-68.8,110.6-151.9,162.7-234.2c79.3-125.1,117-237.5,134.6-309.8
		c4.7-19.3,24.2-31.2,43.5-26.5c19.3,4.7,31.2,24.2,26.5,43.5c-18.9,77.6-59.1,198-143.7,331.4c-56.2,88.6-120.4,180.5-176.2,252.1
		c-26,33.4-49.5,61.4-67.9,81.1c-19.5,20.8-32.9,32.3-45,37.9c-8.9,7.3-18.8,8.2-22.8,8.3C698.8,906.4,698.7,906.4,698.6,906.4z"/>
</g>
<path class="st2" d="M676.7,494.1"/>
</svg>
