<?xml version="1.0" encoding="utf-8"?>
<!-- Generator: Adobe Illustrator 28.0.0, SVG Export Plug-In . SVG Version: 6.00 Build 0)  -->
<svg version="1.1" id="Layer_1" xmlns="http://www.w3.org/2000/svg" xmlns:xlink="http://www.w3.org/1999/xlink" x="0px" y="0px"
	 viewBox="0 0 1920 1080" style="enable-background:new 0 0 1920 1080;" xml:space="preserve">
<style type="text/css">
	.st0{fill:#00AEEF;}
	.st1{fill:#F7C3D9;stroke:#EB4A98;stroke-width:5;stroke-miterlimit:10;}
	.st2{fill:#F7C3D9;stroke:#EB4A98;stroke-width:18;stroke-miterlimit:4.7888;}
	.st3{fill:none;stroke:#EB4A98;stroke-width:72;stroke-linecap:round;stroke-miterlimit:4.7888;}
	.st4{fill:none;stroke:#F3B4CD;stroke-width:21;stroke-linecap:round;stroke-miterlimit:4.7888;}
</style>
<path class="st0" d="M436.8,623.6l999.4,331.9l-72.6-831.8L436.8,623.6z M1368.5,874.3L565,607.5l745.2-402L1368.5,874.3z"/>
<g>
	<path class="st1" d="M437.6,443.6c4.5-3.1,9-6,14.4-8.4c17.5-7.8,27-5.2,30,1.4c1.6,3.5,1.3,9.2-3.3,11.3c-2.6,1.1-5.8-0.5-7-3
		c-2.2-4.9-9-5.2-14.6-2.7c-7,3.1-13.6,8.4-20.4,14.5c-14.1,31.5-13.2,111.9-0.7,139.6c1.5,3.3,3.3,4.1,4.5,6.9
		c1.3,2.8,0.4,7.1-3.3,8.8c-2.6,1.2-6.8,1.1-9.3-4.5c-15.7-34.9-13-99.9-6.8-137.1c-10,9-21.1,17.9-34.1,23.7
		c-6.3,2.8-23.3,7.4-27.4-1.9c-1.4-3,0.4-6.6,3.4-8c1.6-0.7,4.1-0.7,5.7,0.2c4.6,2.1,9.2,3.1,14.6,0.7c16.3-7.3,28.6-19.8,41.8-31.4
		c1.8-5.9,4.3-9.8,6.6-10.8C433.8,441.9,436,442.6,437.6,443.6z"/>
	<path class="st1" d="M552.5,497.6c1-4.6,2-7.9,4.4-9s3.9-0.1,4.7,1.8c0.9,2.1,0.6,3.9-0.5,8.3c-5.2,18.3-14.3,46.7-25.9,51.9
		c-9.3,4.2-15.7,0.6-19.8-8.5c-2.7-6-4.2-18.8-5.3-21.1s-2.4-4-5.4-2.6c-10.2,4.6-22.2,37.7-20.3,51.3c0.8,5.5-1,8.3-3.8,9.5
		c-2.6,1.2-5.9-0.7-7.8-4.9c-4.7-10.5-10.4-62.4-4.4-106.8c4.3-31.6,13.5-51.4,23.1-55.7c4.4-2,11.7-0.8,14.3,5
		c3.1,7,7.1,22.6-1.3,50.1c-8.9,29.4-19.8,42.5-24.4,54c-2.8,6.8-0.9,22.8-0.7,24.6c5-18.8,16.1-35.2,26.1-39.7
		c7-3.1,11.2-0.6,13.7,5c2.6,5.8,4.7,19.7,6.9,24.6c1.9,4.2,4.1,6,7.6,4.4C542.2,536.4,548.9,512.7,552.5,497.6z M478.8,466.7
		c-3,24.5-1.6,39.3-1.6,39.3s11.7-14.5,18.4-38.8c7.3-27.3,5.5-38.8,3.6-43c-1.1-2.6-3.1-2.5-5-1.7
		C487.9,425.4,481.6,442.5,478.8,466.7z"/>
	<path class="st1" d="M605.1,474c1.2-4.8,2.3-8,4.6-9.1c2.3-1,3.9-0.1,4.7,1.8c0.9,2.1,0.6,3.9-0.5,8.3c-5.2,18.3-15,47.6-40.8,59.2
		c-7.2,3.2-17.3-1.2-20.7-8.6c-1-2.3-2.1-2.7-3.1-5c-0.9-2.1-0.2-5.5,1.5-7.4c-0.4-26.4,11.2-42.2,23.1-47.6
		c4.4-2,11.2-0.6,13.2,3.9c5.3,11.9-8.8,34.5-21.8,44.2c-3.8,2.8-3.4,4.3-2.3,6.6s4.5,6.3,10.1,3.8C593.6,515,601.8,488.9,605.1,474
		z M560.7,507.1c8-3.9,20.6-25.2,18.4-30.1c-0.8-1.9-2-1.9-3.8-1.1C568,479.2,561.7,500,560.7,507.1z"/>
</g>
<path class="st2" d="M1125.1,614.3c9-11.2,15-18.7,23.2-18.7c6.7,0,10.5,4.5,10.5,10.5c0,6.7-3,11.2-11.2,21.7
	c-35.9,42.7-103.3,106.2-140.7,106.2c-12.7,0-30.7-13.5-30.7-38.2c0-32.9,38.2-106.2,44.2-117.5c8.2-14.2,15-26.2,24.7-26.2
	c6.7,0,17.2,5.2,17.2,13.5s-7.5,15.7-14.2,26.9c-16.5,28.4-38.9,80.8-38.9,97.3c0,6.7,3.7,15,13.5,15
	C1044.3,704.9,1098.2,650.2,1125.1,614.3z M1140.1,439.2c0,18-20.2,28.4-29.2,28.4c-9,0-12.7-15.7-12.7-26.2s10.5-23.2,25.4-23.2
	C1131.1,418.3,1140.1,424.3,1140.1,439.2z"/>
<path class="st2" d="M1352.6,334.5c0,61.4-64.3,168.4-180.3,253.7c-6.7,9-15.7,44.9-15.7,54.6c0,1.5,0,3,0.8,3
	c4.5,0,8.2-5.2,13.5-11.2c34.4-42.7,79.3-83.8,121.2-83.8c18,0,29.9,14.2,29.9,34.4c0,62.8-57.6,145.2-111.5,145.2
	c-25.4,0-32.9-12-32.9-23.9c0-7.5,6.7-15,17.2-15c12.7,0,13.5,4.5,20.2,4.5c29.9,0,72.6-63.6,72.6-99.5c0-6-4.5-12-13.5-12
	c-16.5,0-48.6,30.7-86.8,72.6c-15,15.7-32.2,41.9-32.2,53.9s-15,24.7-22.4,24.7c-7.5,0-14.2-3.7-14.2-27.7
	c0-95.8,38.2-200.5,83.8-285.1c45.6-85.3,79.3-118.2,122-118.2C1340.6,304.5,1352.6,319.5,1352.6,334.5z M1230.6,428
	c-30.7,60.6-46.4,107.8-50.1,119.7c87.5-61.4,142.9-172.8,142.9-202.8c0-7.5-3.7-11.2-11.2-11.2C1300.2,333.7,1265,360.7,1230.6,428
	z"/>
<path class="st2" d="M1521.7,614.3c9-11.2,15.7-18.7,23.2-18.7s10.5,4.5,10.5,10.5c0,6.7-3,11.2-11.2,21.7
	c-35.9,42.7-97.3,109.2-180.3,109.2c-23.2,0-44.9-23.9-44.9-47.9c0-7.5-2.2-9.7-2.2-17.2c0-6.7,6-15,12.7-18
	c30.7-71.1,80.8-99.5,119-99.5c14.2,0,30.7,12,30.7,26.2c0,38.2-65.1,81.6-111.5,92c-13.5,3-14.2,7.5-14.2,15s4.5,22.5,22.4,22.5
	C1441.6,710.1,1494.7,650.2,1521.7,614.3z M1363,649.5c26.2-0.8,85.3-42.7,85.3-58.4c0-6-3-7.5-9-7.5
	C1416.2,583.6,1374.2,631.5,1363,649.5z"/>
<path class="st3" d="M496.6,322c0,0,52.1,51.5,118,6c57.8-39.9,78.7-147.7,90.7-141.4c39.5,20.9,43.5,480.6-9.4,678.8
	c-3.4,12.6-4.1-3.9,0,0c14.6,13.9,153.4-158.9,279.6-357.9c80.4-126.7,120.4-243.6,139.1-320.6"/>
<path class="st4" d="M501.6,322c0,0,52.1,51.5,118,6c57.8-39.9,78.7-147.7,90.7-141.4c39.5,20.9,43.5,480.6-9.4,678.8
	c-3.4,12.6-4.1-3.9,0,0c14.6,13.9,153.4-158.9,279.6-357.9c80.4-126.7,120.4-243.6,139.1-320.6"/>
</svg>
