<?xml version="1.0" encoding="utf-8"?>
<!-- Generator: Adobe Illustrator 28.0.0, SVG Export Plug-In . SVG Version: 6.00 Build 0)  -->
<svg version="1.1" id="Layer_1" xmlns="http://www.w3.org/2000/svg" xmlns:xlink="http://www.w3.org/1999/xlink" x="0px" y="0px"
	 viewBox="0 0 1920 1080" style="enable-background:new 0 0 1920 1080;" xml:space="preserve">
<style type="text/css">
	.st0{fill:#00AEEF;}
	.st1{fill:none;stroke:#C4E9FB;stroke-width:17;stroke-miterlimit:4.7888;}
	.st2{fill:#F7C3D9;stroke:#EB4A98;stroke-width:5;stroke-miterlimit:10;}
	.st3{fill:#F7C3D9;stroke:#EB4A98;stroke-width:18;stroke-miterlimit:4.7888;}
	.st4{fill:none;stroke:#EB4A98;stroke-width:72;stroke-linecap:round;stroke-miterlimit:4.7888;}
	.st5{fill:none;stroke:#F3B4CD;stroke-width:21;stroke-linecap:round;stroke-miterlimit:4.7888;}
</style>
<path class="st0" d="M436.76,623.59l999.37,331.86l-72.59-831.8L436.76,623.59z M1368.52,874.29L564.98,607.46l745.18-401.98
	L1368.52,874.29z"/>
<polygon class="st1" points="501.56,616.57 1333.67,164.64 1407.21,920.33 "/>
<g>
	<path class="st2" d="M437.61,443.57c4.47-3.13,9.04-6.02,14.39-8.43c17.45-7.84,27.05-5.17,29.98,1.35
		c1.57,3.49,1.33,9.19-3.32,11.28c-2.56,1.15-5.8-0.47-6.95-3.03c-2.2-4.89-9.04-5.17-14.62-2.66c-6.98,3.14-13.59,8.35-20.35,14.46
		c-14.09,31.51-13.18,111.93-0.73,139.62c1.46,3.26,3.26,4.13,4.51,6.92c1.26,2.79,0.39,7.1-3.33,8.77
		c-2.56,1.15-6.78,1.09-9.29-4.49c-15.69-34.9-13.01-99.88-6.79-137.08c-9.96,8.95-21.06,17.86-34.09,23.72
		c-6.28,2.82-23.26,7.38-27.44-1.93c-1.36-3.02,0.39-6.61,3.41-7.97c1.63-0.73,4.14-0.74,5.7,0.24c4.59,2.13,9.23,3.12,14.59,0.72
		c16.29-7.32,28.57-19.83,41.83-31.39c1.84-5.86,4.28-9.76,6.61-10.8C433.79,441.93,436.05,442.59,437.61,443.57z"/>
	<path class="st2" d="M552.53,497.64c0.99-4.64,2.04-7.91,4.37-8.96c2.33-1.05,3.89-0.07,4.72,1.79c0.94,2.09,0.64,3.91-0.46,8.32
		c-5.21,18.28-14.26,46.69-25.89,51.92c-9.31,4.18-15.67,0.61-19.75-8.47c-2.72-6.05-4.25-18.79-5.3-21.12
		c-1.05-2.33-2.35-3.98-5.37-2.62c-10.24,4.6-22.22,37.68-20.27,51.35c0.8,5.51-1.03,8.29-3.82,9.55c-2.56,1.15-5.91-0.7-7.79-4.89
		c-4.71-10.47-10.44-62.44-4.39-106.83c4.27-31.57,13.54-51.4,23.08-55.69c4.42-1.99,11.68-0.77,14.29,5.04
		c3.14,6.98,7.06,22.56-1.27,50.08c-8.86,29.44-19.79,42.46-24.38,54.03c-2.79,6.85-0.94,22.8-0.67,24.64
		c5-18.75,16.07-35.19,26.07-39.69c6.98-3.14,11.21-0.57,13.72,5.02c2.61,5.82,4.67,19.72,6.86,24.61c1.88,4.19,4.09,5.99,7.58,4.42
		C542.25,536.38,548.94,512.68,552.53,497.64z M478.78,466.74c-2.95,24.54-1.62,39.33-1.62,39.33s11.67-14.48,18.38-38.75
		c7.29-27.33,5.48-38.83,3.6-43.02c-1.15-2.56-3.09-2.53-4.95-1.69C487.91,425.43,481.61,442.53,478.78,466.74z"/>
	<path class="st2" d="M605.12,474c1.22-4.75,2.27-8.01,4.6-9.06c2.33-1.05,3.89-0.07,4.72,1.79c0.94,2.09,0.64,3.91-0.46,8.32
		c-5.21,18.28-14.98,47.57-40.81,59.18c-7.21,3.24-17.31-1.17-20.66-8.62c-1.05-2.33-2.06-2.71-3.1-5.04
		c-0.94-2.09-0.23-5.49,1.45-7.36c-0.4-26.39,11.22-42.24,23.09-47.58c4.42-1.99,11.21-0.57,13.2,3.86
		c5.33,11.87-8.84,34.46-21.81,44.21c-3.77,2.81-3.38,4.31-2.33,6.64c1.05,2.33,4.53,6.35,10.12,3.84
		C593.61,514.98,601.76,488.94,605.12,474z M560.7,507.11c8.04-3.89,20.57-25.19,18.37-30.07c-0.84-1.86-1.98-1.91-3.84-1.07
		C568.02,479.21,561.68,499.96,560.7,507.11z"/>
</g>
<path class="st3" d="M1125.09,614.32c8.98-11.22,14.96-18.71,23.2-18.71c6.73,0,10.48,4.49,10.48,10.48
	c0,6.73-2.99,11.22-11.22,21.7c-35.92,42.65-103.26,106.25-140.67,106.25c-12.72,0-30.68-13.47-30.68-38.16
	c0-32.92,38.16-106.25,44.15-117.47c8.23-14.22,14.96-26.19,24.69-26.19c6.73,0,17.21,5.24,17.21,13.47s-7.48,15.71-14.22,26.94
	c-16.46,28.43-38.91,80.81-38.91,97.27c0,6.73,3.74,14.96,13.47,14.96C1044.28,704.86,1098.15,650.24,1125.09,614.32z
	 M1140.05,439.23c0,17.96-20.2,28.43-29.18,28.43c-8.98,0-12.72-15.71-12.72-26.19c0-10.48,10.48-23.2,25.44-23.2
	C1131.08,418.28,1140.05,424.27,1140.05,439.23z"/>
<path class="st3" d="M1352.55,334.48c0,61.36-64.35,168.36-180.33,253.66c-6.73,8.98-15.71,44.89-15.71,54.62
	c0,1.5,0,2.99,0.75,2.99c4.49,0,8.23-5.24,13.47-11.22c34.42-42.65,79.31-83.8,121.22-83.8c17.96,0,29.93,14.22,29.93,34.42
	c0,62.85-57.62,145.16-111.49,145.16c-25.44,0-32.92-11.97-32.92-23.94c0-7.48,6.73-14.96,17.21-14.96c12.72,0,13.47,4.49,20.2,4.49
	c29.93,0,72.58-63.6,72.58-99.52c0-5.99-4.49-11.97-13.47-11.97c-16.46,0-48.64,30.68-86.8,72.58
	c-14.96,15.71-32.17,41.9-32.17,53.87c0,11.97-14.96,24.69-22.45,24.69c-7.48,0-14.22-3.74-14.22-27.69
	c0-95.78,38.16-200.53,83.8-285.08c45.64-85.3,79.31-118.22,121.96-118.22C1340.58,304.55,1352.55,319.51,1352.55,334.48z
	 M1230.59,428.01c-30.68,60.61-46.39,107.75-50.13,119.72c87.54-61.36,142.91-172.84,142.91-202.77c0-7.48-3.74-11.22-11.22-11.22
	C1300.17,333.73,1265.01,360.67,1230.59,428.01z"/>
<path class="st3" d="M1521.65,614.32c8.98-11.22,15.71-18.71,23.2-18.71s10.48,4.49,10.48,10.48c0,6.73-2.99,11.22-11.22,21.7
	c-35.92,42.65-97.27,109.24-180.33,109.24c-23.2,0-44.89-23.94-44.89-47.89c0-7.48-2.25-9.73-2.25-17.21
	c0-6.73,5.99-14.96,12.72-17.96c30.68-71.08,80.81-99.52,118.97-99.52c14.22,0,30.68,11.97,30.68,26.19
	c0,38.16-65.1,81.56-111.49,92.03c-13.47,2.99-14.22,7.48-14.22,14.96s4.49,22.45,22.45,22.45
	C1441.59,710.1,1494.71,650.24,1521.65,614.32z M1363.02,649.49c26.19-0.75,85.3-42.65,85.3-58.36c0-5.99-2.99-7.48-8.98-7.48
	C1416.15,583.64,1374.25,631.53,1363.02,649.49z"/>
<path class="st4" d="M496.56,322.02c0,0,52.07,51.52,117.96,6.05c57.81-39.89,78.74-147.73,90.74-141.38
	c39.55,20.92,43.52,480.58-9.43,678.85c-3.36,12.6-4.11-3.92,0,0c14.62,13.92,153.4-158.88,279.63-357.86
	c80.39-126.73,120.39-243.56,139.13-320.61"/>
<path class="st5" d="M501.56,322.02c0,0,52.07,51.52,117.96,6.05c57.81-39.89,78.74-147.73,90.74-141.38
	c39.55,20.92,43.52,480.58-9.43,678.85c-3.36,12.6-4.11-3.92,0,0c14.62,13.92,153.4-158.88,279.63-357.86
	c80.39-126.73,120.39-243.56,139.13-320.61"/>
</svg>
